Visit http://team-cc.com For More Exclusive Releases
 
http://imgul.in/images/2012/08/03/5RdpQ.jpg

General
Format                           : MPEG-PS
File size                        : 611 MiB
Duration                         : 1h 44mn
Overall bit rate                 : 815 Kbps

Video
ID                               : 224 (0xE0)
Format                           : MPEG Video
Format version                   : Version 2
Format settings, BVOP            : Yes
Format settings, Matrix          : Default
Duration                         : 1h 44mn
Bit rate mode                    : Constant
Bit rate                         : 735 Kbps
Nominal bit rate                 : 1 150 Kbps
Width                            : 352 pixels
Height                           : 288 pixels
Display aspect ratio             : 1.222
Frame rate                       : 25.000 fps
Standard                         : PAL
Color space                      : YUV
Bit depth                        : 8 bits
Scan type                        : Progressive
Compression mode                 : Lossy
Bits/(Pixel*Frame)               : 0.290
Stream size                      : 551 MiB (90%)

Audio
ID                               : 192 (0xC0)
Format                           : MPEG Audio
Format version                   : Version 1
Format profile                   : Layer 2
Duration                         : 1h 44mn
Bit rate mode                    : Constant
Bit rate                         : 64.0 Kbps
Channel(s)                       : 2 channels
Sampling rate                    : 48.0 KHz
Compression mode                 : Lossy
Stream size                      : 48.0 MiB (8%)

Visit http://team-cc.com For More Exclusive Releases